#!OML:ASF H:\Pregnant\Project 1\Capture day 1\Session 1\femalepreg.ASF
:FULLY-SPECIFIED
:DEGREES
712
root 6.12934 15.3295 13.8366 15.4206 -23.2847 -1.01956
lowerback -16.0541 0.73651 1.98836
upperback -2.68026 0.562169 0.552639
thorax 6.1536 0.296053 -0.424043
lowerneck -18.4116 4.07949 6.28431
upperneck 17.2461 3.917 -0.369628
head 8.55259 2.22317 -0.65119
rclavicle -5.31128e-015 9.74045e-015
rhumerus -34.1074 10.611 -87.1075
rradius 24.0018
rwrist 0.362712
rhand -11.4525 -13.6271
rfingers 7.12502
rthumb 14.5846 -43.0943
lclavicle -5.31128e-015 9.74045e-015
lhumerus -35.4643 -16.28 87.9265
lradius 31.8567
lwrist 36.088
lhand -25.0826 0.948522
lfingers 7.12502
lthumb 1.43177 30.9235
rfemur -34.1874 26.2679 21.0431
rtibia 44.0297
rfoot -17.9121 -8.18325
rtoes -5.65751
lfemur -26.3403 -18.2184 -17.4103
ltibia 31.7269
lfoot -15.5329 5.37087
ltoes -12.1793
713
root 6.13133 15.344 13.8456 15.3658 -23.401 -0.950825
lowerback -16.216 0.652134 1.8289
upperback -2.64844 0.471972 0.570159
thorax 6.27254 0.249362 -0.332608
lowerneck -18.1439 4.27547 6.55083
upperneck 17.1104 4.15535 -0.474387
head 8.47677 2.34091 -0.703888
rclavicle -4.79754e-014 2.78299e-015
rhumerus -34.2209 10.8654 -87.287
rradius 24.0674
rwrist 0.655623
rhand -11.5356 -13.4731
rfingers 7.12502
rthumb 14.5045 -42.9461
lclavicle -4.79754e-014 2.78299e-015
lhumerus -35.2597 -15.9786 87.7185
lradius 31.7347
lwrist 36.1794
lhand -25.4195 0.841383
lfingers 7.12502
lthumb 1.10638 30.8183
rfemur -33.993 26.3417 20.9459
rtibia 43.7671
rfoot -17.8433 -8.1542
rtoes -5.60267
lfemur -25.8873 -17.9442 -17.5718
ltibia 31.0671
lfoot -15.3302 5.16357
ltoes -12.5705
714
root 6.13339 15.3589 13.8552 15.3151 -23.4965 -0.888765
lowerback -16.3803 0.558605 1.67503
upperback -2.61819 0.368833 0.594148
thorax 6.39146 0.196222 -0.240619
lowerneck -17.9075 4.47101 6.79829
upperneck 17.0049 4.39374 -0.563728
head 8.41694 2.45944 -0.747796
rclavicle 3.06874e-015 -7.55382e-015
rhumerus -34.3267 11.0647 -87.436
rradius 24.1314
rwrist 0.880401
rhand -11.6842 -13.371
rfingers 7.12502
rthumb 14.3613 -42.8542
lclavicle 3.06874e-015 -7.55382e-015
lhumerus -35.0546 -15.6566 87.5158
lradius 31.5896
lwrist 36.302
lhand -25.7306 0.745566
lfingers 7.12502
lthumb 0.805919 30.7238
rfemur -33.786 26.4006 20.8573
rtibia 43.4869
rfoot -17.7745 -8.12398
rtoes -5.53415
lfemur -25.4721 -17.6052 -17.738
ltibia 30.4584
lfoot -15.1283 4.88616
ltoes -12.9886
715
root 6.13567 15.3741 13.8648 15.2785 -23.5666 -0.837994
lowerback -16.5461 0.461479 1.53481
upperback -2.59992 0.258875 0.622067
thorax 6.4989 0.139706 -0.154145
lowerneck -17.6771 4.65764 7.02975
upperneck 16.9237 4.62242 -0.64177
head 8.36627 2.57395 -0.786533
rclavicle 1.31384e-014 1.96797e-014
rhumerus -34.439 11.1945 -87.5543
rradius 24.1966
rwrist 1.01682
rhand -11.8971 -13.316
rfingers 7.12502
rthumb 14.1562 -42.8137
lclavicle 1.31384e-014 1.96797e-014
lhumerus -34.8601 -15.3393 87.3278
lradius 31.4207
lwrist 36.4565
lhand -25.9807 0.719172
lfingers 7.12502
lthumb 0.56442 30.6982
rfemur -33.5782 26.4415 20.7795
rtibia 43.1906
rfoot -17.703 -8.09314
rtoes -5.46198
lfemur -25.1057 -17.2222 -17.8945
ltibia 29.9003
lfoot -14.932 4.55156
ltoes -13.388
716
root 6.13817 15.3897 13.8743 15.2575 -23.61 -0.801486
lowerback -16.7152 0.378119 1.42499
upperback -2.59807 0.162595 0.644534
thorax 6.59149 0.0903018 -0.0882076
lowerneck -17.4471 4.81774 7.21208
upperneck 16.8704 4.81967 -0.675857
head 8.32213 2.67547 -0.806714
rclavicle -3.51414e-014 -5.96354e-015
rhumerus -34.5713 11.2115 -87.6309
rradius 24.2632
rwrist 1.06597
rhand -12.1384 -13.3306
rfingers 7.12502
rthumb 13.9236 -42.8445
lclavicle -3.51414e-014 -5.96354e-015
lhumerus -34.6849 -15.0797 87.1725
lradius 31.2308
lwrist 36.6433
lhand -26.2015 0.705341
lfingers 7.12502
lthumb 0.351112 30.6848
rfemur -33.3697 26.4673 20.7147
rtibia 42.8781
rfoot -17.6291 -8.06403
rtoes -5.37947
lfemur -24.7837 -16.8222 -18.0329
ltibia 29.3866
lfoot -14.7419 4.17297
ltoes -13.7382
717
root 6.14094 15.4054 13.8838 15.2501 -23.6273 -0.779741
lowerback -16.8852 0.307943 1.34987
upperback -2.61155 0.0785638 0.658332
thorax 6.66865 0.0475314 -0.0489094
lowerneck -17.2209 4.95359 7.35234
upperneck 16.8468 4.98586 -0.664511
head 8.28552 2.76472 -0.808854
rclavicle 3.80176e-014 3.10104e-014
rhumerus -34.7224 11.1259 -87.6756
rradius 24.3298
rwrist 1.02879
rhand -12.3976 -13.4164
rfingers 7.12502
rthumb 13.6738 -42.9472
lclavicle 3.80176e-014 3.10104e-014
lhumerus -34.5292 -14.8879 87.0443
lradius 31.0249
lwrist 36.8657
lhand -26.3569 0.763496
lfingers 7.12502
lthumb 0.201068 30.7431
rfemur -33.1587 26.4799 20.6639
rtibia 42.5512
rfoot -17.5545 -8.03916
rtoes -5.3055
lfemur -24.4966 -16.4434 -18.1472
ltibia 28.9071
lfoot -14.5578 3.78834
ltoes -14.0193
718
root 6.14398 15.4212 13.8934 15.2549 -23.6197 -0.773262
lowerback -17.0564 0.257219 1.31231
upperback -2.64803 0.0143026 0.664124
thorax 6.72214 0.0150686 -0.0354272
lowerneck -16.9605 5.0526 7.44375
upperneck 16.8393 5.10984 -0.613538
head 8.24436 2.83534 -0.79622
rclavicle 7.40473e-015 8.54774e-015
rhumerus -34.9182 10.944 -87.6868
rradius 24.4
rwrist 0.904543
rhand -12.6789 -13.5282
rfingers 7.12502
rthumb 13.4027 -43.0771
lclavicle 7.40473e-015 8.54774e-015
lhumerus -34.4116 -14.7783 86.9604
lradius 30.8058
lwrist 37.1121
lhand -26.4489 0.900483
lfingers 7.12502
lthumb 0.1122 30.8802
rfemur -32.9436 26.4825 20.6279
rtibia 42.212
rfoot -17.4814 -8.02017
rtoes -5.22981
lfemur -24.2364 -16.1082 -18.2335
ltibia 28.4519
lfoot -14.376 3.41013
ltoes -14.1866
719
root 6.14727 15.4367 13.9033 15.272 -23.5895 -0.781932
lowerback -17.2273 0.211206 1.29961
upperback -2.69698 -0.0480012 0.668275
thorax 6.76209 -0.0159779 -0.0376621
lowerneck -16.7067 5.13516 7.51871
upperneck 16.8581 5.21193 -0.545471
head 8.21139 2.89661 -0.777902
rclavicle -2.03816e-014 2.54444e-014
rhumerus -35.1286 10.7107 -87.6795
rradius 24.4636
rwrist 0.701451
rhand -12.9728 -13.6759
rfingers 7.12502
rthumb 13.1195 -43.2432
lclavicle -2.03816e-014 2.54444e-014
lhumerus -34.3125 -14.7146 86.8991
lradius 30.5793
lwrist 37.3695
lhand -26.5096 1.06452
lfingers 7.12502
lthumb 0.0535261 31.0443
rfemur -32.7277 26.4776 20.6059
rtibia 41.8649
rfoot -17.4106 -8.00711
rtoes -5.13355
lfemur -23.9964 -15.8315 -18.2914
ltibia 28.0134
lfoot -14.1963 3.06995
ltoes -14.3374
720
root 6.15087 15.4517 13.9134 15.3013 -23.5437 -0.80506
lowerback -17.4003 0.169303 1.30972
upperback -2.75206 -0.108862 0.66956
thorax 6.79641 -0.0458124 -0.0558209
lowerneck -16.4856 5.20612 7.57842
upperneck 16.9105 5.29457 -0.454157
head 8.19361 2.95037 -0.750977
rclavicle 2.82026e-015 -4.37326e-015
rhumerus -35.3422 10.4488 -87.6639
rradius 24.5233
rwrist 0.424598
rhand -13.2609 -13.8549
rfingers 7.12502
rthumb 12.8417 -43.4399
lclavicle 2.82026e-015 -4.37326e-015
lhumerus -34.2217 -14.7011 86.8539
lradius 30.3522
lwrist 37.6369
lhand -26.5171 1.31581
lfingers 7.12502
lthumb 0.0462928 31.2955
rfemur -32.5147 26.4669 20.5957
rtibia 41.5141
rfoot -17.343 -7.99793
rtoes -5.02552
lfemur -23.773 -15.6204 -18.3229
ltibia 27.5881
lfoot -14.0166 2.78207
ltoes -14.4644
